<svg width="1188" height="100" viewBox="0 0 1188 100" fill="none" xmlns="http://www.w3.org/2000/svg">
<g filter="url(#filter0_d_205_460)">
<rect x="14" y="10" width="1160" height="72" rx="36" fill="white" fill-opacity="0.3" shape-rendering="crispEdges"/>
<rect x="14.5" y="10.5" width="1159" height="71" rx="35.5" stroke="#01ECFF" shape-rendering="crispEdges"/>
<g clip-path="url(#clip0_205_460)">
<path d="M1145.26 45.9863L1145.26 46.0263C1145.26 47.5225 1144.75 48.91 1143.91 50.0225L1143.91 50.0288C1143.34 50.798 1142.6 51.4329 1141.75 51.89L1128.8 59.3313L1128.69 59.3763L1118.81 65.0725C1117.79 65.6788 1116.62 65.9975 1115.42 65.9975C1114.48 65.9975 1113.58 65.8025 1112.77 65.4513L1112.74 65.4575C1112.14 65.1919 1111.58 64.8362 1111.08 64.4025C1110.51 63.9076 1110.02 63.3174 1109.64 62.6575C1109.07 61.6725 1108.76 60.5556 1108.75 59.4163L1108.75 59.305C1108.75 57.8622 1109.22 56.4587 1110.09 55.3088L1110.09 55.3025C1110.67 54.5333 1111.41 53.8984 1112.25 53.4413L1125.2 46L1125.31 45.955L1135.24 40.2313C1136.25 39.641 1137.41 39.3309 1138.58 39.3325C1139.29 39.3325 1139.97 39.4425 1140.61 39.6463L1140.65 39.6575L1140.7 39.6775C1140.96 39.7625 1141.26 39.8725 1141.26 39.8725C1141.86 40.1348 1142.41 40.4859 1142.9 40.9138L1143.02 41.0188L1143.05 41.0438L1143.06 41.0438L1143.06 41.05L1143.08 41.0638L1143.08 41.0775C1143.59 41.5392 1144.02 42.0773 1144.36 42.6725C1144.94 43.6576 1145.24 44.7744 1145.26 45.9138L1145.26 45.9863ZM1108.75 32.68L1108.75 32.5813C1108.76 31.442 1109.07 30.3254 1109.64 29.34C1110.02 28.675 1110.51 28.09 1111.08 27.595C1111.58 27.1613 1112.14 26.8056 1112.74 26.54L1112.77 26.5463C1113.6 26.1834 1114.51 25.9974 1115.42 26C1116.66 26 1117.82 26.3388 1118.81 26.925L1128.69 32.6213L1128.8 32.6663L1137.61 37.7313C1136.53 37.855 1135.48 38.1863 1134.51 38.7213L1134.35 38.8175L1124.59 44.4425L1124.61 44.4425L1124.37 44.5538L1123.52 45.035L1112.25 38.5563C1111.41 38.0991 1110.67 37.4642 1110.09 36.695L1110.09 36.6888C1109.22 35.5392 1108.75 34.1354 1108.75 32.6925L1108.75 32.68Z" fill="white"/>
</g>
<path d="M52.9141 42.5508C52.9141 45.5 55.0625 48.4883 57.6211 49.6016L56.7617 50.8125C54.7305 49.8848 52.9727 47.8828 52.1719 45.4805C51.3516 48.0293 49.6035 50.2461 47.6211 51.2422L46.7031 50.0312C49.1836 48.8398 51.3516 45.5586 51.3711 42.5508V40.2852H47.2695V39.0156H57.0547V40.2852H52.9141V42.5508ZM61.0195 37.2188V54.582H59.4766V37.2188H61.0195ZM78.3828 48.4102V54.582H76.8398V49.6406H66.7031V48.4102H78.3828ZM78.3828 37.2188V47.4531H76.8398V44.9531H72.3672C71.5566 45.9395 70.2773 46.5254 68.7734 46.5156C66.1758 46.5352 64.2617 44.8164 64.2617 42.3555C64.2617 39.9336 66.1758 38.2148 68.7734 38.2148C70.2676 38.2148 71.5469 38.8008 72.3672 39.7773H76.8398V37.2188H78.3828ZM68.7734 39.5234C66.9961 39.5234 65.7266 40.7148 65.7266 42.3555C65.7266 44.0547 66.9961 45.2266 68.7734 45.2266C70.4727 45.2266 71.7812 44.0547 71.7812 42.3555C71.7812 40.7148 70.4727 39.5234 68.7734 39.5234ZM73.0508 43.6836H76.8398V41.0469H73.0508C73.1875 41.457 73.2656 41.8867 73.2656 42.3555C73.2656 42.8242 73.1875 43.2734 73.0508 43.6836ZM84.125 51.6914L82.6016 57.0039H81.1562L82.2305 51.6914H84.125ZM105.727 37.2383V50.4219H104.184V48.625H100.59V47.5117H104.184V37.2383H105.727ZM106.156 52.9219V54.2109H93.8125V49.1328H95.3555V52.9219H106.156ZM91.3125 45.2852C94.5547 45.2656 98.8906 45.2461 102.621 44.7773L102.719 45.8906C101.166 46.1348 99.5449 46.291 97.9531 46.3789V49.8164H96.4102V46.457C94.6523 46.5352 92.9824 46.5449 91.5273 46.5352L91.3125 45.2852ZM97.0156 37.9414C99.5547 37.9414 101.293 39.1523 101.312 40.9688C101.293 42.8242 99.5547 43.9766 97.0156 43.9766C94.457 43.9766 92.7188 42.8242 92.7188 40.9688C92.7188 39.1523 94.457 37.9414 97.0156 37.9414ZM97.0156 39.1133C95.3164 39.0938 94.1641 39.8555 94.1836 40.9688C94.1641 42.1016 95.3164 42.8438 97.0156 42.8438C98.6562 42.8438 99.8281 42.1016 99.8477 40.9688C99.8281 39.8555 98.6562 39.0938 97.0156 39.1133ZM122.133 37.2188V44.3867H125.043V45.6562H122.133V54.582H120.609V37.2188H122.133ZM118.93 40.0117V41.2812H108.598V40.0117H113.07V37.4336H114.594V40.0117H118.93ZM113.852 42.7266C116.312 42.7266 118.09 44.3672 118.109 46.7109C118.09 49.0547 116.312 50.6953 113.852 50.6953C111.371 50.6953 109.574 49.0547 109.594 46.7109C109.574 44.3672 111.371 42.7266 113.852 42.7266ZM113.852 44.0156C112.23 44.0156 111.039 45.1484 111.059 46.7109C111.039 48.293 112.23 49.4062 113.852 49.3867C115.453 49.4062 116.625 48.293 116.645 46.7109C116.625 45.1484 115.453 44.0156 113.852 44.0156ZM140.023 42.4922V43.7227H128.129V37.8633H129.652V42.4922H140.023ZM141.859 46.0859V47.3359H125.961V46.0859H141.859ZM140.121 52.8828V54.1523H128.031V49.1133H129.555V52.8828H140.121ZM152.953 38.5664C154.545 38.5762 155.834 39.5039 156.586 41.1055H161.156V37.2188H162.68V54.6211H161.156V47.8828H156.703C155.971 49.6406 154.633 50.6562 152.953 50.6562C150.395 50.6562 148.598 48.3125 148.598 44.6211C148.598 40.9297 150.395 38.5859 152.953 38.5664ZM152.953 39.9336C151.234 39.9531 150.062 41.7891 150.062 44.6211C150.062 47.4531 151.234 49.2891 152.953 49.2891C154.652 49.2891 155.844 47.4531 155.844 44.6211C155.844 41.7891 154.652 39.9531 152.953 39.9336ZM157.035 42.3945C157.191 43.0684 157.289 43.8105 157.289 44.6211C157.289 45.334 157.211 46.0078 157.094 46.6133H161.156V42.3945H157.035ZM180.316 37.2188V48.2148H178.852V43.2344H176.527V47.5898H175.082V37.5703H176.527V41.9648H178.852V37.2188H180.316ZM174.379 39.3086V40.5391H165.473V39.3086H169.184V37.3555H170.707V39.3086H174.379ZM169.945 41.4766C172.152 41.4766 173.656 42.6289 173.676 44.4453C173.656 46.2227 172.152 47.3945 169.945 47.3945C167.758 47.3945 166.215 46.2227 166.234 44.4453C166.215 42.6289 167.758 41.4766 169.945 41.4766ZM169.945 42.6094C168.559 42.6094 167.602 43.3516 167.602 44.4453C167.602 45.5195 168.559 46.2422 169.945 46.2422C171.332 46.2422 172.289 45.5195 172.289 44.4453C172.289 43.3516 171.332 42.6094 169.945 42.6094ZM174.574 48.5078C178.227 48.5078 180.414 49.6016 180.414 51.5547C180.414 53.4492 178.227 54.543 174.574 54.543C170.922 54.543 168.734 53.4492 168.754 51.5547C168.734 49.6016 170.922 48.5078 174.574 48.5078ZM174.574 49.7188C171.879 49.6992 170.258 50.3633 170.277 51.5547C170.258 52.6875 171.879 53.3516 174.574 53.3516C177.27 53.3516 178.871 52.6875 178.891 51.5547C178.871 50.3633 177.27 49.6992 174.574 49.7188ZM195.023 39.3477V40.5781H190.023V44.0156H194.223V45.2461H190.023V49.1523C192.514 49.123 194.037 49.0352 195.922 48.6836L196.059 49.9336C194.047 50.3438 192.406 50.3828 189.652 50.4023H188.559V39.3477H195.023ZM202.738 37.2188V54.582H201.254V37.2188H202.738ZM199.184 37.6484V53.6836H197.719V45.0898H195.16V43.8203H197.719V37.6484H199.184ZM213.891 38.9766V50.168H205.883V38.9766H213.891ZM207.367 40.207V48.918H212.367V40.207H207.367ZM218.598 37.2188V44.1523H221.508V45.4805H218.598V54.582H217.074V37.2188H218.598ZM241.801 37.2188V46.5352H240.277V37.2188H241.801ZM232.074 47.4141V49.5234H240.277V47.4141H241.801V54.3477H230.551V47.4141H232.074ZM232.074 53.0977H240.277V50.7539H232.074V53.0977ZM232.426 38.0781C235.062 38.0586 236.977 39.6797 236.977 42.0625C236.977 44.4258 235.062 46.0469 232.426 46.0469C229.789 46.0469 227.875 44.4258 227.875 42.0625C227.875 39.6797 229.789 38.0586 232.426 38.0781ZM232.426 39.3672C230.648 39.3477 229.359 40.4805 229.379 42.0625C229.359 43.6445 230.648 44.7773 232.426 44.7773C234.184 44.7773 235.473 43.6445 235.473 42.0625C235.473 40.4805 234.184 39.3477 232.426 39.3672ZM252.992 38.293V43.1562H247.016V45.8516C250.277 45.8516 251.957 45.8027 254.008 45.4219L254.164 46.6914C251.996 47.043 250.238 47.1016 246.723 47.1016H245.492V41.9844H251.469V39.5234H245.453V38.293H252.992ZM259.145 37.2383V47.9023H257.602V44.6797H254.145V43.4102H257.602V41.0664H254.145V39.8164H257.602V37.2383H259.145ZM259.145 48.8398V54.6211H257.602V50.0898H247.445V48.8398H259.145Z" fill="#E6E6E6"/>
</g>
<defs>
<filter id="filter0_d_205_460" x="0" y="0" width="1188" height="100" filterUnits="userSpaceOnUse" color-interpolation-filters="sRGB">
<feFlood flood-opacity="0" result="BackgroundImageFix"/>
<feColorMatrix in="SourceAlpha" type="matrix" values="0 0 0 0 0 0 0 0 0 0 0 0 0 0 0 0 0 0 127 0" result="hardAlpha"/>
<feMorphology radius="2" operator="dilate" in="SourceAlpha" result="effect1_dropShadow_205_460"/>
<feOffset dy="4"/>
<feGaussianBlur stdDeviation="6"/>
<feComposite in2="hardAlpha" operator="out"/>
<feColorMatrix type="matrix" values="0 0 0 0 0.00392157 0 0 0 0 0.92549 0 0 0 0 1 0 0 0 0.4 0"/>
<feBlend mode="normal" in2="BackgroundImageFix" result="effect1_dropShadow_205_460"/>
<feBlend mode="normal" in="SourceGraphic" in2="effect1_dropShadow_205_460" result="shape"/>
</filter>
<clipPath id="clip0_205_460">
<rect width="40" height="40" fill="white" transform="translate(1147 26) rotate(90)"/>
</clipPath>
</defs>
</svg>
