<svg width="40" height="40" viewBox="0 0 40 40" fill="none" xmlns="http://www.w3.org/2000/svg">
<path d="M36.3535 1.67734L36.5449 1.6665L36.7796 1.68095L36.9421 1.70984L37.1642 1.77303L37.3574 1.85609L37.538 1.959L37.7005 2.07998L37.8485 2.21539L37.9424 2.32192L38.0905 2.53137L38.1844 2.7047C38.2686 2.88525 38.3228 3.07544 38.3469 3.27525L38.3559 3.46664C38.3559 3.60266 38.3414 3.73507 38.3125 3.86387L38.2494 4.08595L26.4555 36.725C26.2319 37.2117 25.8733 37.624 25.4224 37.913C24.9715 38.202 24.447 38.3556 23.9114 38.3554C23.4291 38.3564 22.9548 38.2327 22.5344 37.9964C22.1139 37.7601 21.7617 37.4192 21.5119 37.0066L21.3945 36.7773L15.3423 24.6765L3.29921 18.6532C2.85361 18.4494 2.46931 18.1321 2.18478 17.7332C1.90024 17.3343 1.72543 16.8677 1.67783 16.38L1.66699 16.111C1.66699 15.0998 2.21046 14.1754 3.18546 13.6373L3.43824 13.511L35.9689 1.764L36.1603 1.70984L36.3535 1.67734Z" fill="#00E3F1"/>
</svg>
