<svg width="814" height="560" viewBox="0 0 814 560" fill="none" xmlns="http://www.w3.org/2000/svg">
<path d="M720.336 350.875L719.949 351.797L722.12 352.708L721.269 350.513L720.336 350.875ZM141.495 129.625L140.75 128.958L138.402 131.586L141.78 130.583L141.495 129.625ZM429.979 395.875L428.993 396.039L430.976 395.952L429.979 395.875ZM814 4L803.003 0.478677L805.452 11.763L814 4ZM1.90846 559.418C2.44727 558.247 2.99763 557.069 3.55955 555.885L1.75264 555.027C1.18737 556.219 0.633674 557.404 0.0915447 558.582L1.90846 559.418ZM7.06982 548.704C8.24554 546.367 9.46451 544.008 10.7268 541.629L8.96008 540.692C7.69111 543.083 6.46549 545.455 5.28317 547.805L7.06982 548.704ZM14.5521 534.599C15.8297 532.308 17.1463 530.001 18.5019 527.68L16.7748 526.671C15.4126 529.004 14.0894 531.323 12.8053 533.625L14.5521 534.599ZM22.5981 520.818C23.9708 518.568 25.3793 516.307 26.8237 514.036L25.1361 512.962C23.685 515.244 22.2699 517.516 20.8908 519.777L22.5981 520.818ZM31.1596 507.353C32.6227 505.142 34.1194 502.923 35.6496 500.697L34.0017 499.564C32.4647 501.799 30.9613 504.028 29.4916 506.249L31.1596 507.353ZM40.2025 494.198C41.7518 492.027 43.3327 489.85 44.9455 487.671L43.3377 486.481C41.7181 488.67 40.1304 490.856 38.5744 493.037L40.2025 494.198ZM49.7019 481.354C51.3158 479.247 52.9591 477.139 54.632 475.03L53.065 473.787C51.3852 475.905 49.7349 478.022 48.1143 480.138L49.7019 481.354ZM59.6387 468.823C61.3131 466.782 63.0153 464.741 64.7451 462.702L63.2198 461.408C61.4829 463.456 59.7738 465.505 58.0924 467.555L59.6387 468.823ZM69.9971 456.612C71.7291 454.636 73.4872 452.663 75.2714 450.693L73.789 449.351C71.9976 451.329 70.2324 453.31 68.4933 455.293L69.9971 456.612ZM80.7023 444.794C82.5093 442.863 84.3415 440.936 86.1991 439.014L84.761 437.624C82.8959 439.554 81.0562 441.489 79.2419 443.428L80.7023 444.794ZM91.7825 433.329C93.6684 431.44 95.579 429.556 97.5145 427.679L96.122 426.243C94.1788 428.128 92.2604 430.019 90.3669 431.917L91.7825 433.329ZM103.248 422.205C105.182 420.389 107.139 418.579 109.12 416.778L107.775 415.298C105.786 417.107 103.821 418.924 101.879 420.748L103.248 422.205ZM115.091 411.435C117.071 409.693 119.073 407.958 121.098 406.233L119.8 404.71C117.768 406.443 115.757 408.184 113.769 409.934L115.091 411.435ZM127.24 401.084C129.284 399.399 131.35 397.723 133.438 396.057L132.191 394.493C130.094 396.166 128.02 397.849 125.967 399.541L127.24 401.084ZM139.704 391.142C141.814 389.514 143.946 387.897 146.099 386.292L144.904 384.688C142.742 386.3 140.601 387.924 138.482 389.558L139.704 391.142ZM152.518 381.587C154.667 380.039 156.836 378.502 159.026 376.978L157.883 375.337C155.684 376.867 153.506 378.41 151.349 379.964L152.518 381.587ZM165.657 372.444C167.848 370.973 170.058 369.514 172.288 368.069L171.201 366.391C168.961 367.842 166.742 369.307 164.542 370.784L165.657 372.444ZM179.021 363.785C181.285 362.37 183.568 360.969 185.872 359.583L184.841 357.869C182.527 359.261 180.234 360.668 177.961 362.089L179.021 363.785ZM192.705 355.547C194.999 354.217 197.312 352.902 199.644 351.602L198.67 349.855C196.328 351.161 194.006 352.481 191.702 353.816L192.705 355.547ZM206.698 347.746C209.021 346.502 211.362 345.272 213.722 344.058L212.807 342.28C210.437 343.499 208.086 344.734 205.753 345.983L206.698 347.746ZM220.848 340.467C223.242 339.285 225.655 338.12 228.085 336.971L227.23 335.163C224.79 336.316 222.367 337.487 219.963 338.673L220.848 340.467ZM235.29 333.638C237.704 332.546 240.135 331.471 242.583 330.412L241.79 328.576C239.331 329.639 236.889 330.72 234.466 331.816L235.29 333.638ZM249.982 327.286C252.424 326.279 254.882 325.289 257.358 324.316L256.626 322.454C254.14 323.431 251.671 324.426 249.22 325.437L249.982 327.286ZM264.795 321.464C267.291 320.53 269.804 319.614 272.334 318.717L271.665 316.832C269.125 317.733 266.601 318.653 264.095 319.59L264.795 321.464ZM279.872 316.112C282.375 315.271 284.894 314.447 287.429 313.641L286.823 311.735C284.278 312.544 281.748 313.372 279.234 314.217L279.872 316.112ZM295.084 311.278C297.632 310.515 300.197 309.77 302.778 309.043L302.236 307.118C299.644 307.847 297.069 308.596 294.51 309.363L295.084 311.278ZM310.43 306.956C312.996 306.279 315.577 305.62 318.174 304.98L317.695 303.038C315.088 303.681 312.496 304.342 309.919 305.022L310.43 306.956ZM326.01 303.117C328.573 302.53 331.15 301.962 333.742 301.412L333.327 299.455C330.724 300.007 328.137 300.578 325.563 301.168L326.01 303.117ZM341.549 299.821C344.165 299.31 346.797 298.818 349.443 298.345L349.091 296.377C346.435 296.851 343.793 297.345 341.165 297.859L341.549 299.821ZM357.315 297.004C359.915 296.582 362.529 296.179 365.157 295.795L364.868 293.816C362.229 294.202 359.605 294.606 356.995 295.03L357.315 297.004ZM373.082 294.701C375.737 294.355 378.406 294.029 381.089 293.723L380.863 291.736C378.169 292.043 375.489 292.371 372.823 292.717L373.082 294.701ZM388.952 292.886C391.581 292.627 394.223 292.386 396.879 292.165L396.713 290.172C394.047 290.394 391.395 290.635 388.755 290.896L388.952 292.886ZM404.884 291.559C407.542 291.378 410.211 291.217 412.894 291.075L412.789 289.078C410.096 289.22 407.416 289.382 404.749 289.564L404.884 291.559ZM420.796 290.715C423.443 290.614 426.101 290.531 428.772 290.468L428.725 288.469C426.044 288.532 423.376 288.615 420.72 288.716L420.796 290.715ZM436.822 290.338C439.471 290.314 442.132 290.309 444.805 290.323L444.815 288.323C442.133 288.309 439.462 288.314 436.804 288.338L436.822 290.338ZM452.724 290.421C455.376 290.473 458.039 290.543 460.713 290.632L460.78 288.633C458.096 288.544 455.424 288.473 452.763 288.422L452.724 290.421ZM468.771 290.957C471.41 291.082 474.061 291.225 476.723 291.387L476.844 289.391C474.174 289.229 471.514 289.085 468.865 288.959L468.771 290.957ZM484.626 291.922C487.271 292.118 489.927 292.333 492.594 292.567L492.768 290.574C490.093 290.34 487.428 290.124 484.774 289.927L484.626 291.922ZM500.626 293.324C503.259 293.589 505.901 293.873 508.555 294.175L508.781 292.188C506.119 291.885 503.468 291.6 500.827 291.334L500.626 293.324ZM516.41 295.12C519.039 295.453 521.677 295.803 524.326 296.172L524.602 294.191C521.945 293.821 519.298 293.469 516.661 293.136L516.41 295.12ZM532.301 297.334C534.933 297.734 537.575 298.152 540.227 298.588L540.551 296.614C537.892 296.177 535.242 295.758 532.602 295.357L532.301 297.334ZM548.006 299.914C550.609 300.374 553.221 300.851 555.842 301.345L556.212 299.38C553.584 298.884 550.964 298.405 548.354 297.945L548.006 299.914ZM563.732 302.881C566.372 303.411 569.02 303.958 571.678 304.524L572.094 302.568C569.429 302.001 566.773 301.452 564.126 300.92L563.732 302.881ZM579.364 306.204C581.932 306.78 584.509 307.372 587.094 307.982L587.553 306.035C584.961 305.424 582.377 304.83 579.802 304.252L579.364 306.204ZM594.875 309.861C597.477 310.505 600.088 311.165 602.707 311.843L603.208 309.907C600.582 309.227 597.964 308.565 595.355 307.92L594.875 309.861ZM610.453 313.89C612.979 314.573 615.514 315.271 618.056 315.985L618.597 314.059C616.048 313.343 613.507 312.643 610.974 311.96L610.453 313.89ZM625.706 318.176C628.264 318.922 630.83 319.685 633.403 320.464L633.983 318.55C631.403 317.769 628.831 317.004 626.266 316.256L625.706 318.176ZM641.148 322.85C643.664 323.639 646.188 324.444 648.719 325.265L649.335 323.362C646.798 322.54 644.269 321.733 641.746 320.942L641.148 322.85ZM656.221 327.735C658.729 328.574 661.244 329.429 663.766 330.299L664.418 328.408C661.89 327.536 659.369 326.68 656.855 325.839L656.221 327.735ZM671.355 332.955C673.891 333.856 676.435 334.773 678.987 335.706L679.673 333.827C677.116 332.893 674.567 331.974 672.024 331.071L671.355 332.955ZM686.429 338.464C688.882 339.385 691.342 340.321 693.808 341.272L694.528 339.405C692.056 338.453 689.591 337.515 687.132 336.591L686.429 338.464ZM701.228 344.168C703.708 345.148 706.194 346.142 708.687 347.152L709.438 345.299C706.94 344.287 704.448 343.29 701.963 342.308L701.228 344.168ZM716.186 350.226C717.439 350.746 718.693 351.27 719.949 351.797L720.723 349.953C719.465 349.424 718.208 348.9 716.952 348.379L716.186 350.226ZM721.269 350.513C720.803 349.314 720.324 348.105 719.831 346.888L717.977 347.638C718.467 348.847 718.942 350.047 719.404 351.237L721.269 350.513ZM716.706 339.478C715.669 337.112 714.581 334.718 713.444 332.297L711.634 333.148C712.764 335.553 713.844 337.932 714.874 340.281L716.706 339.478ZM709.952 325.103C708.782 322.766 707.566 320.408 706.305 318.031L704.539 318.969C705.792 321.331 707.001 323.676 708.164 325.999L709.952 325.103ZM702.5 311.054C701.213 308.755 699.883 306.441 698.512 304.115L696.789 305.13C698.153 307.444 699.475 309.745 700.755 312.031L702.5 311.054ZM694.421 297.339C693.029 295.088 691.599 292.828 690.13 290.559L688.451 291.647C689.913 293.903 691.336 296.152 692.72 298.391L694.421 297.339ZM685.769 283.974C684.283 281.779 682.761 279.578 681.203 277.373L679.569 278.527C681.12 280.721 682.634 282.911 684.113 285.096L685.769 283.974ZM676.583 270.972C675.011 268.837 673.404 266.7 671.763 264.562L670.177 265.779C671.81 267.907 673.408 270.033 674.973 272.158L676.583 270.972ZM666.893 258.341C665.24 256.271 663.555 254.201 661.837 252.134L660.298 253.412C662.008 255.47 663.685 257.529 665.331 259.59L666.893 258.341ZM656.722 246.095C654.992 244.093 653.233 242.094 651.442 240.099L649.954 241.435C651.736 243.42 653.487 245.41 655.208 247.402L656.722 246.095ZM646.087 234.246C644.286 232.314 642.456 230.389 640.597 228.47L639.161 229.861C641.011 231.771 642.832 233.688 644.624 235.61L646.087 234.246ZM635.006 222.806C633.137 220.949 631.241 219.099 629.316 217.258L627.934 218.703C629.849 220.536 631.736 222.377 633.596 224.225L635.006 222.806ZM623.493 211.791C621.56 210.011 619.601 208.24 617.614 206.479L616.287 207.976C618.264 209.728 620.215 211.491 622.138 213.262L623.493 211.791ZM611.574 201.226C609.577 199.523 607.553 197.83 605.504 196.148L604.235 197.694C606.275 199.368 608.288 201.053 610.276 202.748L611.574 201.226ZM599.291 191.148C597.22 189.513 595.123 187.89 593 186.28L591.792 187.873C593.904 189.475 595.991 191.09 598.052 192.718L599.291 191.148ZM586.625 181.539C584.48 179.975 582.31 178.425 580.116 176.889L578.969 178.527C581.153 180.056 583.313 181.599 585.447 183.155L586.625 181.539ZM573.59 172.414C571.391 170.937 569.168 169.474 566.92 168.026L565.837 169.708C568.074 171.148 570.286 172.604 572.475 174.074L573.59 172.414ZM560.2 163.788C557.956 162.403 555.688 161.033 553.398 159.679L552.38 161.401C554.66 162.748 556.916 164.111 559.149 165.49L560.2 163.788ZM546.468 155.673C544.183 154.382 541.876 153.107 539.547 151.848L538.597 153.608C540.914 154.86 543.21 156.129 545.483 157.414L546.468 155.673ZM532.493 148.125C530.145 146.914 527.775 145.72 525.383 144.544L524.501 146.339C526.881 147.51 529.24 148.697 531.577 149.902L532.493 148.125ZM518.231 141.114C515.826 139.988 513.399 138.88 510.951 137.791L510.138 139.619C512.575 140.702 514.99 141.805 517.384 142.925L518.231 141.114ZM503.684 134.641C501.253 133.615 498.801 132.606 496.329 131.617L495.586 133.474C498.046 134.459 500.487 135.462 502.906 136.484L503.684 134.641ZM488.862 128.713C486.411 127.786 483.941 126.878 481.45 125.989L480.778 127.872C483.257 128.757 485.716 129.661 488.155 130.583L488.862 128.713ZM473.919 123.38C471.407 122.537 468.876 121.712 466.325 120.908L465.723 122.816C468.263 123.616 470.782 124.436 473.283 125.276L473.919 123.38ZM458.762 118.6C456.222 117.851 453.663 117.121 451.086 116.412L450.555 118.34C453.121 119.046 455.668 119.772 458.196 120.519L458.762 118.6ZM443.382 114.367C440.839 113.717 438.279 113.086 435.7 112.476L435.239 114.422C437.806 115.03 440.355 115.657 442.887 116.305L443.382 114.367ZM427.91 110.707C425.328 110.145 422.729 109.603 420.113 109.081L419.722 111.043C422.327 111.562 424.914 112.101 427.484 112.661L427.91 110.707ZM412.342 107.604C409.735 107.132 407.111 106.68 404.469 106.249L404.147 108.223C406.777 108.652 409.39 109.102 411.986 109.572L412.342 107.604ZM396.591 105.032C393.998 104.655 391.389 104.297 388.763 103.96L388.508 105.944C391.123 106.28 393.721 106.636 396.303 107.012L396.591 105.032ZM380.839 103.01C378.203 102.716 375.551 102.443 372.883 102.191L372.694 104.182C375.351 104.433 377.992 104.705 380.617 104.998L380.839 103.01ZM365.029 101.512C362.396 101.306 359.748 101.12 357.084 100.954L356.96 102.95C359.613 103.115 362.25 103.3 364.873 103.506L365.029 101.512ZM349.048 100.519C346.445 100.399 343.829 100.299 341.197 100.218L341.136 102.218C343.757 102.298 346.364 102.398 348.956 102.517L349.048 100.519ZM333.261 100.036C330.601 99.9958 327.927 99.9753 325.238 99.9753L325.238 101.975C327.917 101.975 330.581 101.996 333.23 102.036L333.261 100.036ZM317.315 100.034C314.695 100.073 312.062 100.131 309.415 100.209L309.474 102.208C312.111 102.131 314.735 102.073 317.345 102.034L317.315 100.034ZM301.434 100.502C298.776 100.618 296.104 100.755 293.419 100.911L293.535 102.908C296.211 102.752 298.873 102.616 301.522 102.5L301.434 100.502ZM285.58 101.422C282.955 101.611 280.317 101.819 277.666 102.047L277.837 104.039C280.479 103.813 283.108 103.605 285.724 103.417L285.58 101.422ZM269.677 102.787C267.056 103.048 264.424 103.327 261.779 103.626L262.003 105.613C264.639 105.316 267.263 105.037 269.875 104.777L269.677 102.787ZM253.954 104.56C251.334 104.889 248.703 105.238 246.059 105.605L246.334 107.586C248.969 107.22 251.592 106.873 254.204 106.544L253.954 104.56ZM238.094 106.762C235.509 107.155 232.913 107.565 230.306 107.993L230.63 109.967C233.229 109.54 235.817 109.131 238.395 108.74L238.094 106.762ZM222.525 109.319C219.921 109.779 217.305 110.257 214.679 110.753L215.05 112.718C217.669 112.224 220.276 111.747 222.873 111.289L222.525 109.319ZM206.768 112.295C204.212 112.809 201.646 113.34 199.069 113.888L199.486 115.844C202.055 115.298 204.614 114.768 207.162 114.256L206.768 112.295ZM191.359 115.574C188.779 116.153 186.188 116.749 183.588 117.362L184.047 119.309C186.641 118.697 189.224 118.102 191.797 117.525L191.359 115.574ZM175.757 119.256C173.22 119.884 170.673 120.528 168.117 121.189L168.618 123.125C171.167 122.466 173.707 121.823 176.237 121.197L175.757 119.256ZM160.499 123.201C157.951 123.888 155.393 124.592 152.826 125.312L153.366 127.238C155.927 126.519 158.478 125.818 161.02 125.132L160.499 123.201ZM145.096 127.523C143.803 127.9 142.508 128.281 141.211 128.666L141.78 130.583C143.074 130.199 144.366 129.819 145.656 129.443L145.096 127.523ZM142.241 130.291C143.123 129.304 144.019 128.32 144.929 127.342L143.464 125.98C142.545 126.968 141.64 127.961 140.75 128.958L142.241 130.291ZM150.52 121.562C152.41 119.684 154.351 117.832 156.338 116.011L154.987 114.536C152.98 116.375 151.02 118.247 149.111 120.143L150.52 121.562ZM162.366 110.714C164.407 108.994 166.491 107.312 168.615 105.674L167.393 104.091C165.246 105.746 163.14 107.446 161.078 109.184L162.366 110.714ZM175.081 100.916C177.271 99.3799 179.499 97.8944 181.76 96.4656L180.692 94.7748C178.402 96.2212 176.149 97.7245 173.933 99.2781L175.081 100.916ZM188.645 92.3554C190.978 91.0431 193.343 89.7942 195.737 88.6154L194.854 86.8211C192.426 88.0166 190.029 89.2826 187.664 90.6122L188.645 92.3554ZM203.027 85.2857C205.492 84.2473 207.984 83.2864 210.5 82.4096L209.841 80.521C207.285 81.4122 204.753 82.3883 202.251 83.4426L203.027 85.2857ZM218.138 80.0318C220.711 79.3266 223.307 78.7129 225.921 78.1975L225.534 76.2353C222.871 76.7604 220.228 77.3852 217.609 78.1029L218.138 80.0318ZM233.815 76.9526C236.452 76.6414 239.106 76.4342 241.773 76.3376L241.7 74.3389C238.978 74.4376 236.271 74.649 233.58 74.9663L233.815 76.9526ZM249.75 76.3828C252.391 76.5096 255.042 76.7491 257.702 77.1077L257.969 75.1256C255.252 74.7593 252.543 74.5146 249.846 74.3851L249.75 76.3828ZM265.579 78.5189C268.133 79.0913 270.693 79.7782 273.257 80.585L273.857 78.6772C271.24 77.8535 268.625 77.152 266.016 76.5673L265.579 78.5189ZM280.749 83.287C283.181 84.277 285.614 85.3796 288.046 86.5994L288.943 84.8117C286.464 83.5687 283.984 82.4446 281.504 81.4347L280.749 83.287ZM295.06 90.448C297.289 91.7782 299.517 93.2111 301.741 94.7504L302.879 93.1058C300.618 91.5414 298.353 90.0841 296.085 88.7305L295.06 90.448ZM308.215 99.5432C310.258 101.156 312.297 102.861 314.33 104.663L315.657 103.167C313.595 101.34 311.528 99.6097 309.455 97.9734L308.215 99.5432ZM320.173 110.123C322.052 111.971 323.925 113.905 325.792 115.926L327.261 114.569C325.373 112.525 323.478 110.568 321.575 108.697L320.173 110.123ZM331.054 121.878C332.769 123.903 334.478 126.005 336.181 128.186L337.757 126.955C336.039 124.754 334.313 122.631 332.58 120.585L331.054 121.878ZM340.942 134.518C342.5 136.668 344.052 138.886 345.597 141.175L347.255 140.056C345.698 137.749 344.133 135.512 342.561 133.344L340.942 134.518ZM349.947 147.837C351.358 150.069 352.763 152.361 354.161 154.716L355.88 153.695C354.474 151.325 353.059 149.016 351.638 146.768L349.947 147.837ZM358.186 161.703C359.461 163.984 360.73 166.317 361.992 168.705L363.76 167.77C362.491 165.369 361.214 163.021 359.931 160.727L358.186 161.703ZM365.759 176.032C366.912 178.339 368.06 180.693 369.202 183.094L371.008 182.236C369.861 179.822 368.707 177.456 367.548 175.137L365.759 176.032ZM372.6 190.427C373.701 192.864 374.796 195.346 375.884 197.875L377.721 197.084C376.628 194.545 375.529 192.051 374.423 189.604L372.6 190.427ZM378.95 205.165C379.966 207.636 380.976 210.15 381.98 212.707L383.842 211.976C382.834 209.41 381.82 206.886 380.8 204.404L378.95 205.165ZM384.886 220.274C385.803 222.715 386.714 225.192 387.619 227.707L389.501 227.03C388.592 224.506 387.678 222.02 386.758 219.571L384.886 220.274ZM390.319 235.364C391.197 237.907 392.069 240.487 392.936 243.104L394.834 242.476C393.965 239.851 393.09 237.263 392.209 234.711L390.319 235.364ZM395.372 250.605C396.178 253.138 396.98 255.705 397.776 258.304L399.688 257.719C398.89 255.112 398.086 252.539 397.277 249.998L395.372 250.605ZM400.148 266.204C400.885 268.708 401.617 271.242 402.344 273.805L404.268 273.26C403.539 270.69 402.805 268.15 402.066 265.639L400.148 266.204ZM404.485 281.494C405.194 284.086 405.897 286.708 406.596 289.36L408.53 288.851C407.83 286.193 407.125 283.565 406.414 280.967L404.485 281.494ZM408.649 297.298C409.289 299.818 409.924 302.365 410.555 304.937L412.498 304.461C411.866 301.883 411.229 299.332 410.588 296.806L408.649 297.298ZM412.434 312.734C413.056 315.359 413.672 318.011 414.285 320.69L416.234 320.244C415.621 317.561 415.003 314.904 414.38 312.273L412.434 312.734ZM416.075 328.664C416.637 331.208 417.194 333.776 417.747 336.367L419.703 335.949C419.149 333.354 418.591 330.782 418.028 328.233L416.075 328.664ZM419.392 344.21C419.937 346.848 420.476 349.51 421.012 352.196L422.973 351.805C422.437 349.115 421.896 346.449 421.351 343.806L419.392 344.21ZM422.602 360.31C423.093 362.861 423.581 365.434 424.064 368.027L426.03 367.661C425.546 365.063 425.058 362.487 424.566 359.932L422.602 360.31ZM425.503 375.871C425.978 378.506 426.45 381.163 426.917 383.842L428.888 383.498C428.42 380.816 427.947 378.155 427.471 375.516L425.503 375.871ZM428.307 391.941C428.537 393.301 428.765 394.667 428.993 396.039L430.966 395.711C430.738 394.338 430.509 392.97 430.279 391.608L428.307 391.941ZM430.976 395.952C431.074 394.686 431.184 393.403 431.305 392.102L429.314 391.916C429.191 393.227 429.081 394.521 428.982 395.798L430.976 395.952ZM432.165 384.207C432.481 381.65 432.841 379.037 433.246 376.37L431.268 376.07C430.861 378.755 430.499 381.386 430.18 383.961L432.165 384.207ZM434.523 368.612C434.976 366.057 435.469 363.459 436.001 360.82L434.041 360.425C433.505 363.078 433.01 365.692 432.554 368.263L434.523 368.612ZM437.659 353.063C438.227 350.543 438.831 347.99 439.471 345.407L437.53 344.926C436.886 347.522 436.279 350.089 435.708 352.623L437.659 353.063ZM441.465 337.706C442.141 335.201 442.851 332.671 443.595 330.117L441.674 329.558C440.927 332.124 440.214 334.667 439.534 337.184L441.465 337.706ZM445.883 322.54C446.663 320.043 447.475 317.527 448.321 314.991L446.424 314.359C445.574 316.906 444.758 319.435 443.974 321.943L445.883 322.54ZM450.886 307.535C451.764 305.058 452.673 302.564 453.614 300.056L451.741 299.353C450.796 301.873 449.883 304.378 449 306.867L450.886 307.535ZM456.443 292.718C457.413 290.268 458.414 287.806 459.445 285.333L457.599 284.563C456.563 287.048 455.558 289.521 454.584 291.982L456.443 292.718ZM462.532 278.108C463.589 275.695 464.675 273.272 465.792 270.841L463.974 270.007C462.853 272.448 461.762 274.882 460.7 277.306L462.532 278.108ZM469.135 263.723C470.277 261.347 471.448 258.964 472.647 256.575L470.86 255.678C469.655 258.077 468.479 260.47 467.333 262.857L469.135 263.723ZM476.238 249.578C477.463 247.241 478.716 244.9 479.998 242.556L478.243 241.596C476.956 243.951 475.697 246.302 474.467 248.65L476.238 249.578ZM483.829 235.689C485.133 233.398 486.464 231.106 487.823 228.812L486.103 227.792C484.738 230.096 483.4 232.399 482.091 234.699L483.829 235.689ZM491.898 222.07C493.278 219.829 494.686 217.589 496.12 215.349L494.436 214.27C492.995 216.52 491.582 218.771 490.195 221.021L491.898 222.07ZM500.435 208.737C501.89 206.55 503.371 204.364 504.879 202.18L503.233 201.044C501.719 203.237 500.231 205.433 498.77 207.629L500.435 208.737ZM509.433 195.705C510.96 193.574 512.512 191.446 514.09 189.322L512.485 188.129C510.9 190.263 509.341 192.4 507.808 194.54L509.433 195.705ZM518.883 182.988C520.479 180.917 522.1 178.85 523.746 176.788L522.183 175.54C520.53 177.611 518.901 179.687 517.299 181.767L518.883 182.988ZM528.763 170.616C530.43 168.603 532.121 166.595 533.837 164.592L532.319 163.291C530.595 165.302 528.896 167.319 527.222 169.341L528.763 170.616ZM539.049 158.619C540.793 156.656 542.561 154.699 544.355 152.749L542.883 151.395C541.081 153.353 539.305 155.319 537.554 157.291L539.049 158.619ZM549.753 146.981C551.573 145.07 553.419 143.165 555.289 141.269L553.865 139.865C551.987 141.769 550.133 143.682 548.304 145.602L549.753 146.981ZM560.863 135.716C562.745 133.873 564.652 132.038 566.583 130.212L565.208 128.759C563.269 130.593 561.354 132.436 559.464 134.287L560.863 135.716ZM572.371 124.833C574.308 123.064 576.268 121.305 578.252 119.554L576.929 118.055C574.936 119.812 572.967 121.58 571.022 123.356L572.371 124.833ZM584.266 114.342C586.254 112.65 588.264 110.968 590.297 109.295L589.027 107.751C586.985 109.43 584.966 111.12 582.97 112.819L584.266 114.342ZM596.468 104.31C598.525 102.676 600.605 101.054 602.709 99.442L601.492 97.8546C599.38 99.4733 597.291 101.103 595.225 102.743L596.468 104.31ZM609.012 94.6963C611.136 93.1254 613.283 91.5655 615.452 90.0173L614.291 88.3892C612.112 89.9441 609.956 91.5107 607.823 93.0884L609.012 94.6963ZM621.899 85.4984C624.062 84.0094 626.247 82.5318 628.454 81.0661L627.347 79.4C625.131 80.8718 622.937 82.3557 620.765 83.8511L621.899 85.4984ZM635.121 76.7185C637.318 75.3124 639.536 73.9181 641.775 72.5358L640.725 70.8339C638.476 72.2219 636.249 73.6221 634.043 75.0341L635.121 76.7185ZM648.559 68.426C650.821 67.0804 653.105 65.7472 655.411 64.4266L654.417 62.6911C652.102 64.0171 649.808 65.3558 647.536 66.707L648.559 68.426ZM662.273 60.5694C664.581 59.2961 666.911 58.0356 669.261 56.788L668.323 55.0214C665.963 56.274 663.625 57.5397 661.307 58.8181L662.273 60.5694ZM676.282 53.1328C678.61 51.944 680.958 50.7679 683.327 49.6048L682.446 47.8096C680.068 48.9772 677.71 50.158 675.372 51.3516L676.282 53.1328ZM690.495 46.1549C692.867 45.0359 695.258 43.9299 697.67 42.8371L696.845 41.0154C694.424 42.1124 692.023 43.2227 689.641 44.3461L690.495 46.1549ZM704.874 39.6391C707.294 38.5863 709.734 37.5467 712.195 36.5207L711.425 34.6748C708.955 35.7047 706.506 36.7482 704.076 37.8051L704.874 39.6391ZM719.516 33.5309C721.942 32.5611 724.387 31.6043 726.851 30.6609L726.136 28.7931C723.663 29.74 721.209 30.7003 718.774 31.6738L719.516 33.5309ZM734.299 27.8712C736.768 26.9669 739.256 26.0759 741.762 25.1985L741.101 23.3109C738.586 24.1914 736.089 25.0856 733.612 25.9932L734.299 27.8712ZM749.203 22.6518C751.701 21.8162 754.218 20.994 756.753 20.1854L756.145 18.28C753.601 19.0914 751.076 19.9165 748.569 20.7551L749.203 22.6518ZM764.356 17.8179C766.846 17.0612 769.353 16.3177 771.878 15.5874L771.322 13.6662C768.789 14.3989 766.273 15.145 763.774 15.9042L764.356 17.8179ZM779.503 13.4368C782.062 12.7334 784.639 12.0435 787.233 11.3674L786.728 9.43202C784.126 10.1104 781.541 10.8025 778.973 11.5083L779.503 13.4368ZM794.831 9.43887C797.374 8.81084 799.932 8.19592 802.508 7.59434L802.053 5.64676C799.469 6.25027 796.902 6.86716 794.352 7.49723L794.831 9.43887Z" fill="url(#paint0_linear_264_138)"/>
<defs>
<linearGradient id="paint0_linear_264_138" x1="19.8671" y1="213.581" x2="747.993" y2="509.475" gradientUnits="userSpaceOnUse">
<stop stop-color="#00E3F1" stop-opacity="0.4"/>
<stop offset="1" stop-color="#A3FFD4" stop-opacity="0.2"/>
</linearGradient>
</defs>
</svg>
